User Type,Username,Date,Text
,dumbson,2011-04-24T23:55Z,does this have the cam source audio?
[V],.BONE.,2011-04-25T00:35Z,LiNE
,Traziz,2011-04-25T14:51Z,"A lot of people don't understand the terminology.

R5 = Full Digital Video and Audio
R5 Line = Full Digital Video but camera audio, usually with Russian copies they will use English audio taken from a cam/TS so you don't hear in russian :P"
,jeeba901,2011-04-25T14:56Z,yes it does this is nothing but bullshit sound is disgusting 
,angelfire23,2011-04-25T21:42Z,"http://thepiratebay.org/torrent/6343865
i fixed the audio some what try mine its an r5 and General
Complete name                    : C:\Documents and Settings\corkum\My Documents\iWisoft Free Video Converter\Insidious r5 (new audio)AngelFire23.avi
Format                           : AVI
Format/Info                      : Audio Video Interleave
Format profile                   : OpenDML
File size                        : 1.49 GiB
Duration                         : 1h 38mn
Overall bit rate                 : 2 170 Kbps
Writing application              : Lavf52.31.0

Video
ID                               : 0
Format                           : MPEG-4 Visual
Codec ID                         : MP42
Codec ID/Info                    : Microsoft MPEG-4 v2 (pre-standard)
Codec ID/Hint                    : Microsoft
Duration                         : 1h 38mn
Bit rate                         : 1 834 Kbps
Width                            : 720 pixels
Height                           : 304 pixels
Display aspect ratio             : 2.35:1
Frame rate                       : 30.000 fps
Compression mode                 : Lossy
Bits/(Pixel*Frame)               : 0.279
Stream size                      : 1.26 GiB (85%)

Audio
ID                               : 1
Format                           : MPEG Audio
Format version                   : Version 1
Format profile                   : Layer 3
Mode                             : Joint stereo
Mode extension                   : MS Stereo
Codec ID                         : 55
Codec ID/Hint                    : MP3
Duration                         : 37mn 35s
Bit rate mode                    : Constant
Bit rate                         : 320 Kbps
Channel(s)                       : 2 channels
Sampling rate                    : 48.0 KHz
Compression mode                 : Lossy
Stream size                      : 86.0 MiB (6%)
Alignment                        : Aligned on interleaves
Interleave, duration             : 63 ms (1.88 video frames)
Interleave, preload duration     : 20 ms
Writing library                  : LAME3.98.2
"
,mozila,2011-04-26T04:08Z,thanks
,Stozzy,2011-04-26T05:25Z,"if you're gonna complain, go pay your way into the theater. by hitting the download button you're fore fitting your right to bitch about a free service. BTW, .BONE., thanks again for another trust worthy up."
,rrstd21,2011-05-03T03:57Z,"hi BONE!
do u know where to get decent english subtitle for this movie?

thanks!!!!"
,blusniffer,2011-05-06T09:28Z,THANKS!
,yerisan710,2011-05-08T06:06Z,"aid to send
aid to send

aid to send
aid to send
aid to send

>>>>>>>>>>>>>>>>>>>>>>

jajajajajajajaajajajaj((((angelfire23)))))))not


.BONE.............THANKS! ..THANKS! 
"
